<svg id="Group_679" data-name="Group 679" xmlns="http://www.w3.org/2000/svg" width="51" height="69" viewBox="0 0 51 69">
  <g id="Group_673" data-name="Group 673">
    <path id="Polygon_3" data-name="Polygon 3" d="M33.672,1.224a1,1,0,0,1,1.657,0L67.944,49.44A1,1,0,0,1,67.116,51H1.884a1,1,0,0,1-.828-1.56Z" transform="translate(0 69) rotate(-90)" fill="#4aa564"/>
    <path id="Subtraction_27" data-name="Subtraction 27" d="M0,26.944V22.721l13.185-8.4a1,1,0,0,0,0-1.687L0,4.224V0L18.724,12.644a1,1,0,0,1,0,1.657L0,26.943Z" transform="translate(38.437 47.972) rotate(180)" fill="#fff"/>
  </g>
</svg>
