<svg xmlns="http://www.w3.org/2000/svg" width="51" height="69" viewBox="0 0 51 69">
  <g id="Group_678" data-name="Group 678" transform="translate(-672.723 -1268.895)">
    <path id="Polygon_3" data-name="Polygon 3" d="M33.672,1.224a1,1,0,0,1,1.657,0L67.944,49.44A1,1,0,0,1,67.116,51H1.884a1,1,0,0,1-.828-1.56Z" transform="translate(723.723 1268.895) rotate(90)" fill="#02bfe7"/>
    <path id="Subtraction_27" data-name="Subtraction 27" d="M0,26.943V22.72l13.185-8.405a1,1,0,0,0,0-1.687L0,4.223V0L18.723,12.643a1,1,0,0,1,0,1.657L0,26.942Z" transform="translate(685.286 1289.924)" fill="#fff"/>
  </g>
</svg>
